<svg xmlns="http://www.w3.org/2000/svg" xmlns:xlink="http://www.w3.org/1999/xlink" width="500" zoomAndPan="magnify" viewBox="0 0 375 374.999991" height="500" preserveAspectRatio="xMidYMid meet" version="1.0"><path fill="#81e5f9" d="M 117.410156 117.070312 C 162.96875 117.070312 199.902344 154.003906 199.902344 199.5625 C 199.902344 245.121094 162.96875 282.054688 117.410156 282.054688 C 71.851562 282.054688 34.917969 245.121094 34.917969 199.5625 C 34.917969 154.003906 71.851562 117.070312 117.410156 117.070312 " fill-opacity="1" fill-rule="nonzero"/><path stroke-linecap="round" transform="matrix(0.121578, 0, 0, -0.121578, -71.095625, 453.763794)" fill="none" stroke-linejoin="round" d="M 1550.497045 2769.369959 C 1925.225419 2769.369959 2229.011475 2465.583903 2229.011475 2090.855529 C 2229.011475 1716.127155 1925.225419 1412.341099 1550.497045 1412.341099 C 1175.768671 1412.341099 871.982614 1716.127155 871.982614 2090.855529 C 871.982614 2465.583903 1175.768671 2769.369959 1550.497045 2769.369959 Z M 1550.497045 2769.369959 " stroke="#262a30" stroke-width="40" stroke-opacity="1" stroke-miterlimit="10"/><path stroke-linecap="round" transform="matrix(0.121578, 0, 0, -0.121578, -71.095625, 453.763794)" fill="none" stroke-linejoin="round" d="M 1067.202506 1607.496731 L 885.926892 1426.253247 " stroke="#262a30" stroke-width="40" stroke-opacity="1" stroke-miterlimit="10"/><path stroke-linecap="round" transform="matrix(0.121578, 0, 0, -0.121578, -71.095625, 453.763794)" fill="none" stroke-linejoin="round" d="M 2215.131456 2755.425681 L 2033.020471 2573.378955 " stroke="#262a30" stroke-width="40" stroke-opacity="1" stroke-miterlimit="10"/><path stroke-linecap="round" transform="matrix(0.121578, 0, 0, -0.121578, -71.095625, 453.763794)" fill="none" stroke-linejoin="round" d="M 1550.497045 1412.341099 L 1550.497045 1150.99834 " stroke="#262a30" stroke-width="40" stroke-opacity="1" stroke-miterlimit="10"/><path stroke-linecap="round" transform="matrix(0.121578, 0, 0, -0.121578, -71.095625, 453.763794)" fill="none" stroke-linejoin="round" d="M 1550.497045 3030.744848 L 1550.497045 2769.369959 " stroke="#262a30" stroke-width="40" stroke-opacity="1" stroke-miterlimit="10"/><path stroke-linecap="round" transform="matrix(0.121578, 0, 0, -0.121578, -71.095625, 453.763794)" fill="none" stroke-linejoin="round" d="M 2029.646855 1611.673589 L 2215.131456 1426.253247 " stroke="#262a30" stroke-width="40" stroke-opacity="1" stroke-miterlimit="10"/><path stroke-linecap="round" transform="matrix(0.121578, 0, 0, -0.121578, -71.095625, 453.763794)" fill="none" stroke-linejoin="round" d="M 885.926892 2755.425681 L 1068.84112 2572.511454 " stroke="#262a30" stroke-width="40" stroke-opacity="1" stroke-miterlimit="10"/><path stroke-linecap="round" transform="matrix(0.121578, 0, 0, -0.121578, -71.095625, 453.763794)" fill="none" stroke-linejoin="round" d="M 2229.011475 2090.855529 L 2490.386363 2090.855529 " stroke="#262a30" stroke-width="40" stroke-opacity="1" stroke-miterlimit="10"/><path stroke-linecap="round" transform="matrix(0.121578, 0, 0, -0.121578, -71.095625, 453.763794)" fill="none" stroke-linejoin="round" d="M 610.639856 2090.855529 L 871.982614 2090.855529 " stroke="#262a30" stroke-width="40" stroke-opacity="1" stroke-miterlimit="10"/><path fill="#388cf9" d="M 161.578125 148.59375 C 163.621094 154.292969 162.835938 159.4375 162.523438 165.347656 C 162.085938 173.699219 164.792969 179.636719 168.867188 186.6875 C 173.730469 195.09375 175.714844 203.554688 170.933594 212.527344 C 168.347656 217.382812 164.359375 221.285156 161.296875 225.824219 C 157.6875 231.171875 156.675781 237.144531 154.652344 243.128906 C 151.3125 253.027344 144.875 258.945312 134.300781 259.667969 C 130.9375 259.898438 127.652344 259.453125 124.300781 260.289062 C 119.917969 261.386719 116.210938 264.246094 112.164062 266.105469 C 107.652344 268.179688 102.984375 269.136719 98.035156 269.210938 C 89.621094 269.339844 79.46875 265.3125 70.914062 266.605469 C 84.183594 275.730469 100.238281 281.09375 117.558594 281.09375 C 163.121094 281.09375 200.050781 244.164062 200.050781 198.601562 C 200.050781 164.5 179.355469 135.238281 149.832031 122.675781 C 150.179688 130.890625 159.949219 144.039062 161.578125 148.59375 " fill-opacity="1" fill-rule="nonzero"/><path stroke-linecap="round" transform="matrix(0.121578, 0, 0, -0.121578, -71.095625, 453.763794)" fill="none" stroke-linejoin="round" d="M 1550.497045 2769.369959 C 1925.225419 2769.369959 2229.011475 2465.583903 2229.011475 2090.855529 C 2229.011475 1716.127155 1925.225419 1412.341099 1550.497045 1412.341099 C 1175.768671 1412.341099 871.982614 1716.127155 871.982614 2090.855529 C 871.982614 2465.583903 1175.768671 2769.369959 1550.497045 2769.369959 Z M 1550.497045 2769.369959 " stroke="#262a30" stroke-width="40" stroke-opacity="1" stroke-miterlimit="10"/><path stroke-linecap="round" transform="matrix(0.121578, 0, 0, -0.121578, -71.095625, 453.763794)" fill="none" stroke-linejoin="round" d="M 1109.613675 1753.397575 C 994.557316 1927.572532 977.175163 2161.958495 1065.242596 2351.266527 " stroke="#262a30" stroke-width="30" stroke-opacity="1" stroke-miterlimit="10"/><path stroke-linecap="round" transform="matrix(0.121578, 0, 0, -0.121578, -71.095625, 453.763794)" fill="none" stroke-linejoin="round" d="M 1111.959141 2431.430061 C 1122.304895 2445.567117 1133.678799 2458.99732 1145.888075 2471.527892 " stroke="#262a30" stroke-width="30" stroke-opacity="1" stroke-miterlimit="10"/><path fill="#ab81f9" d="M 353.785156 228.714844 C 334.195312 240 308.710938 243.324219 286.882812 237.453125 C 263.820312 231.246094 245.945312 216.09375 233.410156 196.320312 C 220.824219 176.484375 219.734375 151.703125 224.671875 129.425781 C 229.316406 108.480469 246.226562 87.785156 264.453125 76.773438 C 213.988281 75.789062 167.429688 109.085938 153.722656 160.023438 C 137.578125 220.019531 173.128906 281.75 233.125 297.890625 C 293.121094 314.039062 355.796875 274.5625 371.945312 214.5625 C 366.3125 220.207031 360.121094 225.070312 353.785156 228.714844 " fill-opacity="1" fill-rule="nonzero"/><path stroke-linecap="round" transform="matrix(0.121578, 0, 0, -0.121578, -71.095625, 453.763794)" fill="none" stroke-linejoin="round" d="M 3494.727806 1851.071781 C 3333.597497 1758.249156 3123.983511 1730.906804 2944.4429 1779.197703 C 2754.781441 1830.251753 2607.723929 1954.882754 2504.619808 2117.523157 C 2401.098003 2280.677636 2392.133824 2484.50828 2432.74573 2667.743804 C 2470.947911 2840.02311 2610.037265 3010.246116 2759.954318 3100.819664 C 2344.871075 3108.916341 1961.917505 2835.04301 1849.174483 2416.072077 C 1716.382545 1922.592432 2008.794698 1414.847213 2502.274342 1282.087405 C 2995.753987 1149.263338 3511.274587 1473.965811 3644.098655 1967.477585 C 3597.767666 1921.050208 3546.842135 1881.048765 3494.727806 1851.071781 Z M 3494.727806 1851.071781 " stroke="#262a30" stroke-width="40" stroke-opacity="1" stroke-miterlimit="10"/><path stroke-linecap="round" transform="matrix(0.121578, 0, 0, -0.121578, -71.095625, 453.763794)" fill="none" stroke-linejoin="round" d="M 2018.819156 1795.13402 C 2125.939485 1577.005672 2333.657819 1410.895263 2570.035822 1354.411299 " stroke="#262a30" stroke-width="30" stroke-opacity="1" stroke-miterlimit="10"/><path stroke-linecap="round" transform="matrix(0.121578, 0, 0, -0.121578, -71.095625, 453.763794)" fill="none" stroke-linejoin="round" d="M 2653.348064 1333.784049 C 2666.135674 1329.028857 2679.758655 1326.490613 2693.413766 1326.362094 " stroke="#262a30" stroke-width="30" stroke-opacity="1" stroke-miterlimit="10"/><path fill="#81e5f9" d="M 312.976562 198.621094 C 292.738281 199.742188 291.832031 200.644531 290.714844 220.878906 C 289.601562 200.644531 288.695312 199.742188 268.457031 198.621094 C 288.695312 197.503906 289.601562 196.601562 290.714844 176.367188 C 291.832031 196.601562 292.738281 197.503906 312.976562 198.621094 " fill-opacity="1" fill-rule="nonzero"/><path stroke-linecap="round" transform="matrix(0.121578, 0, 0, -0.121578, -71.095625, 453.763794)" fill="none" stroke-linejoin="round" d="M 3159.069114 2098.59878 C 2992.605279 2089.377564 2985.151195 2081.95561 2975.962109 1915.523904 C 2966.805152 2081.95561 2959.351068 2089.377564 2792.887233 2098.59878 C 2959.351068 2107.787866 2966.805152 2115.209821 2975.962109 2281.641526 C 2985.151195 2115.209821 2992.605279 2107.787866 3159.069114 2098.59878 Z M 3159.069114 2098.59878 " stroke="#262a30" stroke-width="40" stroke-opacity="1" stroke-miterlimit="10"/><path fill="#81e5f9" d="M 282.007812 143.945312 C 265.730469 144.839844 265 145.574219 264.101562 161.847656 C 263.203125 145.574219 262.476562 144.839844 246.203125 143.945312 C 262.476562 143.046875 263.203125 142.320312 264.101562 126.042969 C 265 142.320312 265.730469 143.046875 282.007812 143.945312 " fill-opacity="1" fill-rule="nonzero"/><path stroke-linecap="round" transform="matrix(0.121578, 0, 0, -0.121578, -71.095625, 453.763794)" fill="none" stroke-linejoin="round" d="M 2904.345068 2548.31781 C 2770.460721 2540.960115 2764.452472 2534.919737 2757.062648 2401.06752 C 2749.672823 2534.919737 2743.696704 2540.960115 2609.844487 2548.31781 C 2743.696704 2555.707635 2749.672823 2561.683754 2757.062648 2695.568101 C 2764.452472 2561.683754 2770.460721 2555.707635 2904.345068 2548.31781 Z M 2904.345068 2548.31781 " stroke="#262a30" stroke-width="40" stroke-opacity="1" stroke-miterlimit="10"/><path fill="#81e5f9" d="M 38.617188 250.878906 C 22.34375 251.777344 21.617188 252.507812 20.714844 268.785156 C 19.816406 252.507812 19.089844 251.777344 2.808594 250.878906 C 19.089844 249.984375 19.816406 249.257812 20.714844 232.976562 C 21.617188 249.257812 22.34375 249.984375 38.617188 250.878906 " fill-opacity="1" fill-rule="nonzero"/><path stroke-linecap="round" transform="matrix(0.121578, 0, 0, -0.121578, -71.095625, 453.763794)" fill="none" stroke-linejoin="round" d="M 902.409415 1668.768017 C 768.557198 1661.378193 762.581079 1655.369944 755.159124 1521.485597 C 747.769299 1655.369944 741.79318 1661.378193 607.876704 1668.768017 C 741.79318 1676.125712 747.769299 1682.101831 755.159124 1816.018308 C 762.581079 1682.101831 768.557198 1676.125712 902.409415 1668.768017 Z M 902.409415 1668.768017 " stroke="#262a30" stroke-width="40" stroke-opacity="1" stroke-miterlimit="10"/></svg>